<?xml version="1.0" standalone="no"?>
<!DOCTYPE svg PUBLIC "-//W3C//DTD SVG 20010904//EN"
 "http://www.w3.org/TR/2001/REC-SVG-20010904/DTD/svg10.dtd">
<svg version="1.0" xmlns="http://www.w3.org/2000/svg"
 width="512.000000pt" height="512.000000pt" viewBox="0 0 512.000000 512.000000"
 preserveAspectRatio="xMidYMid meet">

<g transform="translate(0.000000,512.000000) scale(0.100000,-0.100000)"
fill="#000000" stroke="none">
<path d="M1505 3773 c7 -1642 6 -1464 3 -1733 -3 -244 6 -309 66 -495 28 -84
62 -364 87 -714 14 -201 7 -500 -15 -589 -30 -122 -86 -200 -162 -228 -34 -12
158 -13 1431 -11 1602 4 1577 3 1760 61 130 41 217 117 245 215 6 20 15 119
20 220 5 101 19 321 30 490 63 958 73 1571 34 1951 -30 295 -68 480 -194 961
-81 308 -101 399 -146 659 -44 259 -107 418 -195 493 -76 65 24 61 -1542 65
l-1428 3 6 -1348z m731 969 c52 -26 118 -98 135 -148 11 -30 14 -113 14 -364
l0 -325 -27 -51 c-89 -168 -309 -198 -436 -60 -70 76 -73 101 -70 463 l3 318
31 55 c32 57 97 111 158 130 47 14 146 5 192 -18z m768 -176 c23 -13 51 -42
64 -64 20 -36 22 -53 22 -176 0 -148 -6 -170 -57 -218 -80 -76 -208 -60 -270
34 -26 38 -28 51 -31 158 -4 129 6 184 43 228 55 65 155 82 229 38z m337
-1415 c354 -79 658 -330 800 -661 201 -466 78 -1005 -304 -1330 -436 -371
-1062 -370 -1499 4 -87 74 -165 167 -232 275 -161 262 -207 608 -121 907 126
433 506 763 950 823 99 14 304 5 406 -18z"/>
</g>
</svg>
